<svg width="132" height="19" viewBox="0 0 132 19" fill="none" xmlns="http://www.w3.org/2000/svg">
<path d="M5.15461 17.5686L6.43536 12.1289L6.50534 11.8317L6.27288 11.6337L1.98645 7.98269L7.66045 7.49879L7.9589 7.47334L8.07726 7.19819L10.2888 2.05726L12.5004 7.19819L12.6188 7.47334L12.9172 7.49879L18.5912 7.98269L14.3048 11.6337L14.0723 11.8317L14.1423 12.1289L15.4231 17.5686L10.5438 14.6768L10.2888 14.5257L10.0339 14.6768L5.15461 17.5686Z" fill="#FFA41C" stroke="#FFC700"/>
<path d="M33.1352 17.5686L34.4159 12.1289L34.4859 11.8317L34.2535 11.6337L29.967 7.98269L35.641 7.49879L35.9395 7.47334L36.0579 7.19819L38.2694 2.05726L40.481 7.19819L40.5994 7.47334L40.8978 7.49879L46.5718 7.98269L42.2854 11.6337L42.0529 11.8317L42.1229 12.1289L43.4036 17.5686L38.5243 14.6768L38.2694 14.5257L38.0145 14.6768L33.1352 17.5686Z" fill="#FFA41C" stroke="#FFC700"/>
<path d="M61.1158 17.5686L62.3965 12.1289L62.4665 11.8317L62.2341 11.6337L57.9476 7.98269L63.6216 7.49879L63.9201 7.47334L64.0384 7.19819L66.25 2.05726L68.4616 7.19819L68.58 7.47334L68.8784 7.49879L74.5524 7.98269L70.266 11.6337L70.0335 11.8317L70.1035 12.1289L71.3842 17.5686L66.5049 14.6768L66.25 14.5257L65.9951 14.6768L61.1158 17.5686Z" fill="#FFA41C" stroke="#FFC700"/>
<path d="M89.0964 17.5686L90.3771 12.1289L90.4471 11.8317L90.2146 11.6337L85.9282 7.98269L91.6022 7.49879L91.9006 7.47334L92.019 7.19819L94.2306 2.05726L96.4421 7.19819L96.5605 7.47334L96.859 7.49879L102.533 7.98269L98.2465 11.6337L98.0141 11.8317L98.0841 12.1289L99.3648 17.5686L94.4855 14.6768L94.2306 14.5257L93.9757 14.6768L89.0964 17.5686Z" fill="#FFA41C" stroke="#FFC700"/>
<path d="M131.75 7.57695L124.892 6.99592L122.211 0.791992L119.531 7.00529L112.672 7.57695L117.881 12.0097L116.316 18.5978L122.211 15.1023L128.106 18.5978L126.551 12.0097L131.75 7.57695ZM122.211 13.3498V4.6343L123.842 8.42038L128.02 8.7765L124.853 11.4755L125.807 15.4865L122.211 13.3498Z" fill="#FFA41C"/>
</svg>
