<svg width="21" height="19" viewBox="0 0 21 19" fill="none" xmlns="http://www.w3.org/2000/svg">
<path d="M11.7989 1.133L20.4329 16.087C20.5646 16.315 20.6339 16.5737 20.6339 16.837C20.6339 17.1003 20.5646 17.359 20.4329 17.587C20.3013 17.815 20.1119 18.0044 19.8839 18.136C19.6559 18.2677 19.3972 18.337 19.1339 18.337H1.86593C1.60263 18.337 1.34397 18.2677 1.11594 18.136C0.887918 18.0044 0.698567 17.815 0.566919 17.587C0.435271 17.359 0.365965 17.1003 0.365967 16.837C0.365968 16.5737 0.435278 16.315 0.566929 16.087L9.20093 1.133C9.77793 0.132996 11.2209 0.132996 11.7989 1.133ZM10.4999 12.985C10.2347 12.985 9.98036 13.0904 9.79282 13.2779C9.60529 13.4654 9.49993 13.7198 9.49993 13.985C9.49993 14.2502 9.60529 14.5046 9.79282 14.6921C9.98036 14.8796 10.2347 14.985 10.4999 14.985C10.7651 14.985 11.0195 14.8796 11.207 14.6921C11.3946 14.5046 11.4999 14.2502 11.4999 13.985C11.4999 13.7198 11.3946 13.4654 11.207 13.2779C11.0195 13.0904 10.7651 12.985 10.4999 12.985ZM10.4999 5.985C10.255 5.98503 10.0186 6.07495 9.83556 6.23771C9.65252 6.40047 9.53559 6.62475 9.50693 6.868L9.49993 6.985V10.985C9.50021 11.2399 9.59781 11.485 9.77278 11.6704C9.94775 11.8557 10.1869 11.9672 10.4413 11.9822C10.6958 11.9971 10.9463 11.9143 11.1418 11.7507C11.3372 11.5871 11.4628 11.3551 11.4929 11.102L11.4999 10.985V6.985C11.4999 6.71978 11.3946 6.46543 11.207 6.27789C11.0195 6.09035 10.7651 5.985 10.4999 5.985Z" fill="#FEA21C"/>
</svg>
