<svg width="16" height="15" viewBox="0 0 16 15" fill="none" xmlns="http://www.w3.org/2000/svg">
<path d="M7.28036 13.8917C7.10481 13.7325 7.01288 13.5298 7.00458 13.2836C6.99692 13.0375 7.08087 12.8348 7.25642 12.6755L11.9486 8.41874H1.24762C0.976304 8.41874 0.748719 8.33534 0.564864 8.16854C0.381648 8.00233 0.290039 7.79615 0.290039 7.55C0.290039 7.30386 0.381648 7.0974 0.564864 6.9306C0.748719 6.76438 0.976304 6.68127 1.24762 6.68127H11.9486L7.25642 2.42449C7.08087 2.26522 6.99692 2.06251 7.00458 1.81637C7.01288 1.57023 7.10481 1.36753 7.28036 1.20826C7.45592 1.04899 7.67935 0.96936 7.95067 0.96936C8.22198 0.96936 8.44542 1.04899 8.62097 1.20826L14.941 6.94189C15.0367 7.01429 15.1047 7.10464 15.145 7.21294C15.1845 7.32182 15.2043 7.43417 15.2043 7.55C15.2043 7.66584 15.1845 7.77443 15.145 7.87578C15.1047 7.97713 15.0367 8.07124 14.941 8.15812L8.62097 13.8917C8.44542 14.051 8.22198 14.1307 7.95067 14.1307C7.67935 14.1307 7.45592 14.051 7.28036 13.8917Z" fill="white"/>
</svg>
