<svg width="21" height="21" viewBox="0 0 21 21" fill="none" xmlns="http://www.w3.org/2000/svg">
<g clip-path="url(#clip0_0_20)">
<path d="M20.5532 10.939L18.9523 7.41689C18.8195 7.12587 18.606 6.87909 18.3371 6.7059C18.0682 6.53271 17.7552 6.4404 17.4353 6.43994H14.49V5.18994C14.4896 4.85853 14.3578 4.5408 14.1235 4.30646C13.8891 4.07212 13.5714 3.9403 13.24 3.93994H2.82331C2.4919 3.9403 2.17417 4.07212 1.93983 4.30646C1.70549 4.5408 1.57367 4.85853 1.57331 5.18994V10.1899C1.57278 10.245 1.58316 10.2996 1.60386 10.3506C1.62456 10.4017 1.65517 10.4481 1.69391 10.4872C1.73266 10.5263 1.77877 10.5574 1.82959 10.5786C1.8804 10.5997 1.93491 10.6107 1.98997 10.6107C2.04503 10.6107 2.09954 10.5997 2.15036 10.5786C2.20118 10.5574 2.24729 10.5263 2.28603 10.4872C2.32478 10.4481 2.35538 10.4017 2.37608 10.3506C2.39678 10.2996 2.40717 10.245 2.40663 10.1899V5.18994C2.40676 5.07947 2.4507 4.97356 2.52881 4.89544C2.60693 4.81733 2.71284 4.77339 2.82331 4.77326H13.24C13.3505 4.77339 13.4564 4.81733 13.5345 4.89544C13.6126 4.97356 13.6565 5.07947 13.6567 5.18994V11.8566C13.6565 11.9671 13.6126 12.073 13.5345 12.1511C13.4563 12.2292 13.3505 12.2731 13.24 12.2733H8.23999C8.13019 12.2743 8.02524 12.3187 7.94797 12.3967C7.8707 12.4747 7.82735 12.5801 7.82735 12.6899C7.82735 12.7997 7.8707 12.9051 7.94797 12.9831C8.02524 13.0612 8.13019 13.1055 8.23999 13.1066H13.24C13.5714 13.1062 13.8891 12.9744 14.1235 12.7401C14.3578 12.5057 14.4896 12.188 14.49 11.8566V7.27326H17.4353C17.5953 7.27348 17.7518 7.31963 17.8863 7.40623C18.0208 7.49282 18.1276 7.61621 18.194 7.76174L18.3507 8.10658H16.5734C16.3524 8.1068 16.1406 8.19467 15.9843 8.3509C15.8281 8.50714 15.7402 8.71898 15.74 8.93994V10.6066C15.7402 10.8276 15.8281 11.0394 15.9843 11.1956C16.1405 11.3519 16.3524 11.4397 16.5733 11.4399H19.8522C19.888 11.5569 19.9064 11.6785 19.9066 11.8009V13.5233C19.9065 13.6338 19.8625 13.7396 19.7844 13.8177C19.7063 13.8958 19.6004 13.9398 19.49 13.9399H18.198C18.1019 13.4694 17.8463 13.0466 17.4743 12.7429C17.1023 12.4392 16.6368 12.2733 16.1566 12.2733C15.6764 12.2733 15.211 12.4392 14.839 12.7429C14.467 13.0466 14.2114 13.4694 14.1153 13.9399H7.36464C7.26858 13.4694 7.01294 13.0466 6.64096 12.7429C6.26899 12.4392 5.80352 12.2733 5.32331 12.2733C4.8431 12.2733 4.37764 12.4392 4.00566 12.7429C3.63369 13.0466 3.37804 13.4694 3.28198 13.9399H2.82331C2.71285 13.9398 2.60695 13.8959 2.52884 13.8177C2.45072 13.7396 2.40678 13.6337 2.40663 13.5233V13.1066C2.51644 13.1056 2.62139 13.0612 2.69866 12.9832C2.77593 12.9051 2.81928 12.7998 2.81928 12.69C2.81928 12.5801 2.77593 12.4748 2.69866 12.3968C2.62139 12.3187 2.51644 12.2744 2.40663 12.2733H1.15663C1.04683 12.2744 0.941879 12.3187 0.864608 12.3968C0.787336 12.4748 0.743988 12.5801 0.743988 12.69C0.743988 12.7998 0.787336 12.9051 0.864608 12.9832C0.941879 13.0612 1.04683 13.1056 1.15663 13.1066H1.57331V13.5233C1.57367 13.8547 1.70549 14.1724 1.93983 14.4068C2.17417 14.6411 2.4919 14.7729 2.82331 14.7733H3.28202C3.37808 15.2438 3.63373 15.6667 4.0057 15.9704C4.37767 16.2741 4.84314 16.44 5.32335 16.44C5.80356 16.44 6.26903 16.2741 6.641 15.9704C7.01298 15.6667 7.26862 15.2438 7.36468 14.7733H14.1153C14.2114 15.2438 14.467 15.6667 14.839 15.9704C15.211 16.2741 15.6765 16.44 16.1567 16.44C16.6369 16.44 17.1024 16.2741 17.4743 15.9704C17.8463 15.6667 18.1019 15.2438 18.198 14.7733H19.49C19.8214 14.7729 20.1391 14.6411 20.3735 14.4068C20.6078 14.1724 20.7396 13.8547 20.74 13.5233V11.8009C20.7405 11.5035 20.6768 11.2095 20.5532 10.939ZM5.32331 15.6066C5.07609 15.6066 4.83441 15.5333 4.62885 15.396C4.42329 15.2586 4.26307 15.0634 4.16846 14.835C4.07385 14.6066 4.0491 14.3552 4.09733 14.1128C4.14556 13.8703 4.26461 13.6476 4.43943 13.4727C4.61425 13.2979 4.83697 13.1789 5.07945 13.1306C5.32193 13.0824 5.57326 13.1072 5.80167 13.2018C6.03008 13.2964 6.2253 13.4566 6.36265 13.6622C6.5 13.8677 6.57331 14.1094 6.57331 14.3566C6.57295 14.688 6.44114 15.0058 6.2068 15.2401C5.97245 15.4744 5.65472 15.6063 5.32331 15.6066ZM16.1566 15.6066C15.9094 15.6066 15.6677 15.5333 15.4622 15.396C15.2566 15.2586 15.0964 15.0634 15.0018 14.835C14.9072 14.6066 14.8824 14.3552 14.9307 14.1128C14.9789 13.8703 15.0979 13.6476 15.2727 13.4727C15.4476 13.2979 15.6703 13.1789 15.9128 13.1306C16.1552 13.0824 16.4066 13.1072 16.635 13.2018C16.8634 13.2964 17.0586 13.4566 17.196 13.6622C17.3333 13.8677 17.4066 14.1094 17.4066 14.3566C17.4063 14.688 17.2745 15.0058 17.0401 15.2401C16.8058 15.4744 16.4881 15.6062 16.1567 15.6066H16.1566ZM16.5733 8.93994H18.7293L19.4869 10.6066H16.5733V8.93994Z" fill="white"/>
<path d="M1.15666 11.8565H3.23998C3.34979 11.8554 3.45474 11.8111 3.53201 11.7331C3.60928 11.655 3.65263 11.5497 3.65263 11.4399C3.65263 11.33 3.60928 11.2247 3.53201 11.1466C3.45474 11.0686 3.34979 11.0243 3.23998 11.0232H1.15666C1.04686 11.0243 0.94191 11.0686 0.864638 11.1466C0.787367 11.2247 0.744019 11.33 0.744019 11.4399C0.744019 11.5497 0.787367 11.655 0.864638 11.7331C0.94191 11.8111 1.04686 11.8554 1.15666 11.8565Z" fill="white"/>
</g>
<defs>
<clipPath id="clip0_0_20">
<rect width="20" height="20" fill="white" transform="translate(0.73999 0.189941)"/>
</clipPath>
</defs>
</svg>
